<?xml version="1.0" encoding="iso-8859-1"?>
<!-- Generator: Adobe Illustrator 20.1.0, SVG Export Plug-In . SVG Version: 6.00 Build 0)  -->
<svg version="1.1" id="Snow" xmlns="http://www.w3.org/2000/svg" xmlns:xlink="http://www.w3.org/1999/xlink" x="0px" y="0px"
	 viewBox="0 0 31.414 31.414" style="enable-background:new 0 0 31.414 31.414;" xml:space="preserve">
<polygon points="31.414,13.414 30,12 27.293,14.707 18.121,14.707 26.121,6.707 29.707,6.707 29.707,4.707 26.707,4.707 
	26.707,1.707 24.707,1.707 24.707,5.293 16.707,13.293 16.707,4.121 19.414,1.414 18,0 15.707,2.293 13.414,0 12,1.414 
	14.707,4.121 14.707,13.293 6.707,5.293 6.707,1.707 4.707,1.707 4.707,4.707 1.707,4.707 1.707,6.707 5.293,6.707 13.293,14.707 
	4.121,14.707 1.414,12 0,13.414 2.293,15.707 0,18 1.414,19.414 4.121,16.707 13.293,16.707 5.293,24.707 1.707,24.707 
	1.707,26.707 4.707,26.707 4.707,29.707 6.707,29.707 6.707,26.121 14.707,18.121 14.707,27.293 12,30 13.414,31.414 15.707,29.121 
	18,31.414 19.414,30 16.707,27.293 16.707,18.121 24.707,26.121 24.707,29.707 26.707,29.707 26.707,26.707 29.707,26.707 
	29.707,24.707 26.121,24.707 18.121,16.707 27.293,16.707 30,19.414 31.414,18 29.121,15.707 "/>
</svg>
