<?xml version="1.0" encoding="UTF-8" standalone="no"?>
<svg
   xmlns:dc="http://purl.org/dc/elements/1.1/"
   xmlns:cc="http://creativecommons.org/ns#"
   xmlns:rdf="http://www.w3.org/1999/02/22-rdf-syntax-ns#"
   xmlns:svg="http://www.w3.org/2000/svg"
   xmlns="http://www.w3.org/2000/svg"
   width="100%"
   height="100%"
   viewBox="0 0 64 64"
   version="1.1"
   xml:space="preserve"
   style="fill-rule:evenodd;clip-rule:evenodd;stroke-linecap:round;stroke-linejoin:round;stroke-miterlimit:2;"
   id="svg9">
  <metadata
   id="metadata15">
    <rdf:RDF>
      <cc:Work
   rdf:about="">
        <dc:format>image/svg+xml</dc:format>

        <dc:type
   rdf:resource="http://purl.org/dc/dcmitype/StillImage" />

      </cc:Work>

    </rdf:RDF>

  </metadata>

  <defs
   id="defs13" />

  
  <path
   d="M24,42c-2.911,0 -5.644,0 -8,0c-2.122,0 -4.157,-0.843 -5.657,-2.343c-1.5,-1.5 -2.343,-3.535 -2.343,-5.657l0,-0.05c0.013,-2.103 0.855,-4.118 2.343,-5.607c1.5,-1.5 3.535,-2.343 5.657,-2.343l0.001,0c2.134,0 4.043,-1.328 4.785,-3.329c1.613,-4.628 6.032,-7.92 11.214,-7.92c5.182,0 9.601,3.292 11.279,7.896c0.732,1.974 2.615,3.283 4.72,3.283c0.001,0.07 0.001,0.07 0.001,0.07c2.122,0 4.157,0.843 5.657,2.343c1.488,1.489 2.33,3.504 2.343,5.607l0,0.05c0,2.122 -0.843,4.157 -2.343,5.657c-1.5,1.5 -3.535,2.343 -5.657,2.343c-3.411,0 -7.614,0 -12,0"
   style="fill:none;stroke:#222a33;stroke-width:2px;"
   id="path3" />

  <path
   d="M24.302,23.975c-1.287,3.471 -4.598,5.775 -8.3,5.775l-0.002,0c-1.127,0 -2.208,0.448 -3.005,1.245"
   style="fill:none;stroke:#222a33;stroke-width:2px;"
   id="path5" />

  <path
   d="M28.93,33.846c0.039,-0.478 0.439,-0.846 0.919,-0.846c1.809,0 6.061,0 8.267,0c0.309,0 0.597,0.154 0.768,0.411c0.171,0.256 0.202,0.582 0.084,0.866c-0.993,2.383 -3.11,7.463 -4.028,9.667c-0.098,0.235 -0.072,0.504 0.07,0.716c0.141,0.213 0.379,0.34 0.635,0.34c0,0 0.001,0 0.001,0c0.325,0 0.619,0.191 0.75,0.488c0.132,0.297 0.075,0.643 -0.143,0.884c-1.776,1.953 -5.04,5.544 -7.041,7.745c-0.205,0.225 -0.535,0.284 -0.805,0.143c-0.27,-0.14 -0.41,-0.445 -0.343,-0.741c0.534,-2.35 1.31,-5.765 1.698,-7.47c0.057,-0.254 -0.004,-0.522 -0.167,-0.726c-0.163,-0.204 -0.41,-0.323 -0.671,-0.323c-0.001,0 -0.001,0 -0.001,0c-0.238,0 -0.464,-0.099 -0.625,-0.274c-0.161,-0.175 -0.241,-0.409 -0.221,-0.645c0.188,-2.259 0.671,-8.055 0.853,-10.235Z"
   style="fill:none;stroke:#222a33;stroke-width:2px;"
   id="path7" />

</svg>
